# xmcd
#
# Track frame offsets: 
#        150
#        20825
#        38910
#        58377
#        80560
#        101750
#        130082
#        153952
#        175582
#        194062
#        214345
#        231165
#        246317
#        263580
#        280945
#
# Disc length: 3983 seconds
#
# Revision: 3
# Processed by: cddbd v1.5PL3 Copyright (c) Steve Scherf et al.
# Submitted via: ExactAudioCopy v0.95a3
#
DISCID=dd0f8d0f
DTITLE=Various Artist - Seishun Uta Nenkan '86 BEST30
DYEAR=2000
DGENRE=
TTITLE0=Rebecca - Friends
TTITLE1=Honda Minako - 1986nen no Marilyn
TTITLE2=Anzenchitai - Prussian Blue no Shouzou
TTITLE3=Sugiyama Kiyotaka - Sayonara no Ocean
TTITLE4=Rebecca - RASPBERRY DREAM
TTITLE5=ALFEE - SWEAT and TEARS
TTITLE6=Suzuki Masayuki - Glass Goshi ni Kieta Natsu
TTITLE7=Hound Dog - ff -fortissimo-
TTITLE8=Minamino Yoko - Kanashimi no Monument
TTITLE9=Yakushimaru Hiroko - Suteki na Koi no Wasurekata
TTITLE10=Watanabe Marina - Shinkokyu Shite
TTITLE11=Shibugakitai Sushi Kuine!
TTITLE12=Ushiroyubi Sasaregumi - Banana no Namida
TTITLE13=Onyanko Club - Jyaane
TTITLE14=Kikuchi Momoko - Natsuiro Kataomoi
EXTD=YEAR: 2000
EXTT0=
EXTT1=
EXTT2=
EXTT3=
EXTT4=
EXTT5=
EXTT6=
EXTT7=
EXTT8=
EXTT9=
EXTT10=
EXTT11=
EXTT12=
EXTT13=
EXTT14=
PLAYORDER=
